<?xml version="1.0" encoding="UTF-8"?>
<svg id="Layer_2" data-name="Layer 2" xmlns="http://www.w3.org/2000/svg" viewBox="0 0 980 980">
  <defs>
    <style>
      .cls-1 {
        fill: #fff;
      }

      .cls-2 {
        fill: #06f;
      }
    </style>
  </defs>
  <g id="Layer_1-2" data-name="Layer 1">
    <g>
      <circle class="cls-2" cx="490" cy="490" r="490"/>
      <path class="cls-1" d="M790,520v60h-110.4c12.9-27.3,20.4-57.6,20.4-90,0-115.8-94.2-210-210-210H190v-60h300c149.12,0,270,120.88,270,270,0,10.2-.9,20.1-1.8,30h31.8ZM490,700c-115.8,0-210-94.2-210-210,0-32.1,7.5-62.7,20.7-90h-110.7v60h31.8c-.9,9.9-1.8,19.8-1.8,30,0,149.12,120.88,270,270,270h300v-60h-300ZM635.8,496c-27.9,22.2-64.2,8.1-85.8-4.5v-1.5c83.7-50.7,41.7-123.3,41.7-123.3,0,0-31.8-55.5-23.4,0,5.1,35.4-25.5,59.7-47.1,72.3l-1.2-.6c-2.1-98.4-86.1-98.4-86.1-98.4,0,0-63.9,0-11.7,20.7,33.3,13.2,39,51.9,39.3,76.8l-1.5.9c-85.8-47.4-127.8,25.2-127.8,25.2,0,0-32.1,55.5,12,20.4,27.9-21.9,64.2-7.8,85.8,4.5v1.5c-83.7,51-41.7,123.6-41.7,123.6,0,0,31.8,55.5,23.7-.3-5.4-35.1,25.5-59.4,47.1-72.3l.9.9c2.1,98.1,86.1,98.1,86.1,98.1,0,0,63.9,0,11.7-20.7-33.3-13.2-39-51.9-39.3-76.8l1.5-.6c85.8,47.4,127.8-25.5,127.8-25.5,0,0,32.1-55.2-12-20.4"/>
    </g>
  </g>
</svg>